<?xml version="1.0" standalone="no"?>

<!DOCTYPE svg PUBLIC "-//W3C//DTD SVG 20010904//EN"

 "http://www.w3.org/TR/2001/REC-SVG-20010904/DTD/svg10.dtd">

<svg version="1.0" xmlns="http://www.w3.org/2000/svg"

 width="169.000000pt" height="857.000000pt" viewBox="0 0 169.000000 857.000000"

 preserveAspectRatio="xMidYMid meet">

<path fill="#ffffff" stroke="none" d="
M0 428

L0 0

L84 0

L169 0

L169 428

L169 857

L84 857

L0 857

L0 428

Z

"/>

<path fill="#efefef" stroke="none" d="
M142 851

C139 849 136 847 136 846

C136 846 137 843 139 840

C149 824 153 805 149 790

C144 777 131 773 123 782

C119 786 117 791 112 812

C106 835 102 843 94 846

C90 848 88 849 80 848

C69 848 64 846 58 839

C43 824 42 791 55 768

C60 760 61 760 65 763

C67 764 70 766 71 767

L74 769

L70 776

C64 784 61 794 61 805

C61 812 61 814 64 819

C68 826 71 829 77 829

C87 830 91 826 96 803

C102 784 103 779 107 773

C112 762 119 757 131 757

C142 757 150 761 157 770

C169 785 169 817 159 840

C156 846 150 855 149 854

C148 854 145 853 142 851

Z

M2 741

L2 731

L14 731

L27 731

L27 741

L27 752

L14 752

L2 752

L2 741

Z

M48 741

L48 731

L106 731

L165 731

L165 741

L165 752

L106 752

L48 752

L48 741

Z

M91 722

C60 715 41 689 47 660

C48 652 53 644 61 636

L68 629

L35 629

L2 629

L2 619

L2 609

L71 608

C109 608 141 608 142 608

C144 608 145 606 146 605

C146 603 147 603 155 603

L165 603

L164 610

C164 621 161 625 151 625

C149 625 147 626 146 626

C146 626 148 629 151 632

C172 653 171 688 148 708

C134 721 111 726 91 722

Z

M117 701

C125 699 132 695 138 689

C145 681 148 674 148 664

C148 657 148 655 145 649

C141 641 135 634 128 631

C123 629 122 629 107 629

C90 629 90 629 85 631

C78 635 70 644 67 651

C64 656 64 658 64 666

C64 672 64 675 66 679

C75 696 97 706 117 701

Z

M90 598

C79 596 71 591 63 583

C44 564 40 534 54 510

C63 494 85 483 106 483

L113 483

L113 531

L113 579

L117 578

C129 576 141 568 147 556

C150 551 150 549 150 541

C150 532 150 530 147 525

C144 518 140 513 136 510

C134 509 132 508 132 508

C131 507 136 491 137 491

C139 491 147 496 152 502

C162 512 166 525 166 541

C166 553 164 560 159 570

C155 578 144 589 136 593

C122 600 104 602 90 598

Z

M98 541

L98 502

L93 503

C82 505 70 514 65 525

C62 530 62 532 62 541

C62 550 62 552 65 557

C68 563 73 570 79 573

C83 576 93 579 96 579

C97 579 98 571 98 541

Z

M6 501

C6 498 7 497 80 466

C122 448 155 433 155 433

C155 432 72 396 71 396

C71 397 56 403 39 410

C22 417 8 424 8 424

C8 424 8 422 8 421

C8 417 6 418 53 398

C59 395 64 393 64 392

C63 392 51 386 36 380

C21 373 8 368 8 367

C8 366 7 365 8 364

C8 362 11 363 40 376

C65 387 72 389 74 389

C75 388 94 380 116 370

C138 361 155 353 155 352

C154 352 121 337 80 319

C7 288 6 287 6 284

C6 283 6 281 6 281

C7 281 42 297 86 316

L165 350

L164 353

C164 356 163 356 122 374

C99 384 81 392 81 393

C81 393 88 396 97 400

C167 431 165 430 165 432

C165 435 163 436 86 469

C43 488 7 504 7 504

C6 504 6 502 6 501

Z

M119 295

C109 290 102 279 99 265

C96 252 98 229 102 216

L103 211

L91 212

C80 212 78 212 73 215

C58 222 50 238 53 255

C54 263 58 272 63 279

C66 285 66 285 64 287

C62 289 62 289 60 286

C57 283 51 271 49 264

C47 257 46 244 48 237

C51 223 59 213 73 208

C79 206 81 206 118 206

C151 205 158 205 158 204

C158 203 160 203 162 203

C165 203 165 202 164 206

C162 209 157 212 151 212

L147 212

L151 216

C159 225 165 239 166 253

C168 271 160 287 146 294

C139 297 125 297 119 295

Z

M143 289

C149 286 155 280 158 274

C160 270 160 268 160 258

C160 248 160 245 158 239

C154 229 148 220 141 215

L136 211

L123 212

L109 212

L107 220

C105 224 104 233 103 240

C101 264 108 283 122 290

C127 292 137 292 143 289

Z

M106 154

C78 131 54 112 54 112

C54 112 54 131 54 154

L54 197

L51 197

L49 197

L49 150

L49 104

L51 104

C53 104 67 115 106 147

L158 190

L158 147

L159 105

L162 105

L165 105

L165 151

L165 198

L161 197

C158 197 151 191 106 154

Z

M95 111

C82 109 71 103 61 93

C48 80 44 63 48 45

C54 21 76 4 102 2

L110 1

L110 54

C110 95 110 106 111 106

C114 106 125 103 131 100

C139 97 149 88 153 81

C166 60 161 30 141 18

C137 16 137 15 137 13

C138 10 138 10 143 12

C153 18 162 31 165 46

C171 73 155 99 126 109

C117 112 104 113 95 111

Z

M104 57

L104 8

L101 7

C100 7 96 8 93 9

C62 17 45 45 55 72

C57 78 62 87 67 91

C75 99 90 106 101 106

L104 107

L104 57

Z

"/>

<path fill="#dfdfdf" stroke="none" d="
M143 851

C140 849 137 847 137 847

C135 846 136 845 138 841

C147 829 151 817 151 804

C151 790 147 782 139 778

C130 774 123 778 119 789

C118 792 115 799 113 806

C107 830 104 838 98 843

C94 848 91 849 81 849

C74 849 72 848 67 845

C50 837 42 815 47 790

C49 782 55 768 59 763

L61 760

L67 764

C70 767 73 769 73 769

C74 769 72 772 70 774

C66 781 63 789 61 799

C60 805 60 807 62 813

C64 824 69 828 77 829

C88 830 91 826 97 802

C101 785 103 779 106 773

C112 762 119 757 131 757

C147 757 159 767 164 785

C167 794 167 814 164 825

C160 837 151 855 149 854

C148 854 146 853 143 851

Z

M2 741

L2 731

L14 731

L27 731

L27 741

L27 752

L14 752

L2 752

L2 741

Z

M48 741

L48 731

L106 731

L165 731

L164 741

L164 751

L106 751

L48 752

L48 741

Z

M91 722

C81 720 69 713 62 707

C45 692 41 668 51 648

C53 645 57 640 61 636

L68 629

L35 629

L2 629

L2 619

L2 609

L72 609

C141 609 143 608 145 607

C146 605 147 604 147 604

C147 603 150 603 156 603

L165 603

L164 611

C164 618 164 619 160 622

C157 625 156 626 152 626

C145 626 144 626 148 629

C157 637 164 649 166 661

C170 688 151 714 122 722

C113 724 100 724 91 722

Z

M117 701

C139 695 153 674 147 655

C144 644 136 635 128 631

C123 629 122 629 107 629

C90 629 90 629 85 631

C78 636 71 643 67 650

C64 656 64 658 64 665

C64 676 66 681 73 689

C84 700 102 705 117 701

Z

M90 598

C68 593 52 576 47 554

C44 539 47 522 54 510

C65 493 83 483 103 483

L112 483

L112 531

L113 579

L117 578

C120 578 125 576 129 574

C137 570 143 564 147 556

C150 551 150 549 150 541

C150 532 150 530 147 524

C143 517 139 511 135 510

C133 509 132 508 132 508

C132 505 136 491 137 491

C139 491 148 497 152 502

C165 516 170 540 164 560

C154 589 121 607 90 598

Z

M98 541

L98 502

L93 503

C82 505 70 514 65 525

C62 530 62 532 62 541

C62 550 62 552 65 557

C66 560 69 564 71 567

C77 573 89 579 96 579

C97 579 98 571 98 541

Z

M6 501

C6 498 8 497 81 466

C122 448 155 433 155 432

C156 432 74 396 72 396

C71 396 57 402 41 409

C24 417 10 423 9 423

C8 424 8 423 8 421

C7 418 8 418 36 405

C52 399 64 393 64 392

C63 392 51 386 36 380

C21 374 9 368 8 368

C8 367 7 366 8 364

C8 362 8 362 40 376

C58 384 72 389 73 389

C74 389 93 380 116 371

L157 353

L123 338

C105 330 71 315 48 305

C6 287 6 287 6 284

C6 282 6 281 7 282

C9 282 159 348 162 349

C164 350 165 351 164 353

C164 355 160 357 123 374

C100 384 81 392 80 392

C80 393 99 401 122 411

C163 429 165 430 165 432

C165 435 162 436 87 469

C44 488 8 503 7 503

C6 504 5 503 6 501

Z

M119 294

C109 290 102 278 99 265

C97 254 98 233 101 221

L103 211

L91 212

C80 212 78 212 72 215

C61 221 55 229 52 242

C51 253 55 269 64 283

C66 286 66 286 64 287

C61 289 60 288 55 276

C47 260 45 249 48 236

C51 224 57 216 68 211

C77 206 83 206 122 206

C153 206 158 205 158 204

C158 203 160 203 162 203

C165 203 165 202 164 206

C162 209 157 212 151 212

L146 212

L151 217

C161 228 166 241 166 258

C166 271 164 277 156 285

C149 293 142 297 131 296

C125 296 122 296 119 294

Z

M141 289

C153 285 161 273 161 258

C161 239 152 221 140 214

C136 212 135 211 122 212

L109 212

L107 220

C103 232 102 247 103 258

C105 274 111 284 120 289

C127 292 133 292 141 289

Z

M106 154

L54 111

L54 154

L53 197

L51 197

L49 197

L49 150

L49 104

L51 104

C53 104 68 116 106 147

L158 190

L158 147

L159 105

L162 105

L165 105

L165 151

L165 198

L162 198

C159 198 149 190 106 154

Z

M95 111

C73 108 54 91 48 70

C42 46 54 20 78 9

C86 4 97 2 105 2

L110 2

L110 54

L110 107

L114 106

C122 105 131 101 139 96

C160 82 166 56 155 34

C152 27 145 20 140 17

C137 15 137 15 137 13

C137 12 138 11 138 11

C139 9 146 14 151 19

C162 30 168 47 166 63

C164 72 160 81 155 89

C148 98 134 107 122 110

C115 112 102 113 95 111

Z

M104 57

L104 8

L101 8

C92 8 76 14 68 22

C47 40 47 71 66 91

C75 99 90 106 101 106

L104 107

L104 57

Z

"/>

<path fill="#cfcfcf" stroke="none" d="
M142 850

C139 848 136 846 136 846

C136 846 137 843 140 839

C147 827 150 820 150 807

C151 796 150 794 149 789

C145 779 135 774 127 778

C122 780 118 787 115 802

C106 835 103 842 93 847

C90 848 88 849 80 848

C70 848 65 846 59 840

C48 830 43 810 47 790

C49 782 54 768 59 763

L61 760

L67 764

C70 767 73 769 73 769

C74 769 73 771 71 773

C67 778 63 789 61 796

C58 818 67 832 82 829

C89 828 91 824 98 799

C105 773 109 764 119 759

C126 756 136 756 144 760

C163 768 171 795 163 825

C161 833 155 847 151 852

L149 855

L142 850

Z

M2 751

C2 750 1 746 2 740

L2 731

L14 731

L27 731

L27 741

L27 752

L15 752

C8 752 3 751 2 751

Z

M48 751

C48 750 48 746 48 740

L48 730

L106 731

L164 731

L164 741

L164 751

L106 751

C75 751 49 751 48 751

Z

M91 722

C87 721 80 719 76 716

C41 699 35 656 65 633

L70 629

L36 629

L2 629

L2 619

L2 609

L72 609

C141 609 143 608 145 607

C146 605 147 604 147 604

C147 603 150 603 156 603

L165 603

L165 609

C165 620 160 626 151 626

C148 626 146 626 145 626

C145 626 146 628 148 630

C157 637 164 649 166 661

C168 676 162 694 150 706

C136 720 112 727 91 722

Z

M117 701

C130 698 140 690 145 679

C148 673 148 671 148 664

C148 656 148 654 145 648

C141 640 132 632 126 630

C123 629 115 629 106 629

C92 629 90 629 86 631

C79 634 71 643 67 650

C64 656 64 658 64 665

C64 676 66 681 74 689

C84 700 101 705 117 701

Z

M92 599

C75 595 59 583 52 568

C37 538 49 502 79 488

C87 485 99 482 107 483

L112 483

L112 531

L113 579

L117 578

C129 577 142 567 147 556

C152 544 151 530 144 519

C141 514 135 509 133 509

C132 509 131 508 132 506

C132 505 133 501 134 497

C135 494 136 491 137 491

C139 491 148 497 152 501

C161 512 166 525 166 542

C166 551 165 554 163 560

C157 579 145 590 126 597

C117 600 102 601 92 599

Z

M98 541

L98 502

L94 503

C83 504 70 514 65 524

C62 530 62 531 62 541

C62 551 62 552 65 558

C68 564 74 571 80 574

C84 576 93 579 96 579

C97 579 98 571 98 541

Z

M6 501

C6 498 10 496 81 466

C122 448 156 433 156 432

C156 432 137 424 114 414

L72 396

L40 410

C22 417 8 424 8 424

C8 424 7 422 7 421

C7 418 8 418 36 405

L65 393

L37 381

C22 374 9 368 8 368

C8 367 7 366 8 364

C8 362 9 362 39 376

C57 383 71 390 72 390

C74 390 156 353 156 352

C155 352 123 338 84 321

C45 304 11 289 9 288

C6 287 6 286 6 284

C6 283 6 282 6 282

C7 282 42 297 86 316

C159 348 164 350 164 353

C164 354 164 355 163 356

C154 359 81 392 80 392

C80 393 98 401 121 411

C144 421 163 430 164 431

C165 432 165 433 164 434

C163 435 9 504 6 504

C6 504 6 502 6 501

Z

M119 294

C109 290 102 278 99 264

C97 254 98 233 101 221

L103 212

L93 211

C81 211 74 213 67 218

C55 226 50 241 53 257

C54 263 60 276 64 283

C66 286 66 286 64 287

C62 288 62 288 60 286

C57 282 50 266 48 260

C42 235 55 212 79 207

C84 206 95 206 122 206

C153 206 158 205 158 204

C158 203 160 203 162 203

C165 203 165 203 163 207

C161 210 157 211 150 211

L146 212

L151 217

C161 227 166 242 166 258

C166 271 164 277 156 285

C149 293 143 296 133 296

C125 297 123 296 119 294

Z

M144 288

C151 284 156 279 159 272

C160 267 161 265 160 255

C159 236 152 221 140 214

C136 212 135 211 122 212

L109 212

L108 216

C105 225 103 234 103 248

C103 259 103 262 105 268

C109 280 115 287 123 290

C128 292 139 291 144 288

Z

M106 154

L54 111

L54 154

L53 197

L51 197

L49 197

L49 150

L49 104

L51 104

C53 104 69 116 105 147

C134 170 158 190 158 190

C158 190 159 170 159 147

L159 105

L162 105

L165 105

L165 151

L165 198

L162 198

C159 198 149 189 106 154

Z

M94 111

C71 107 52 89 47 68

C46 60 47 48 49 40

C52 32 60 21 66 16

C77 7 94 1 105 2

L109 2

L109 54

C110 114 108 108 119 105

C135 101 149 90 156 76

C160 69 160 68 160 58

C161 47 159 39 153 30

C150 25 143 18 139 16

C137 15 137 15 137 13

C138 10 138 10 142 12

C153 18 163 33 166 48

C170 71 156 95 132 106

C120 112 106 113 94 111

Z

M104 57

L104 8

L101 8

C99 8 96 8 92 9

C71 14 56 31 52 50

C49 75 66 99 92 105

C95 106 99 106 101 106

L104 107

L104 57

Z

"/>

<path fill="#bfbfbf" stroke="none" d="
M143 850

C139 848 136 846 136 846

C135 846 136 844 138 842

C142 837 147 826 149 819

C151 809 151 793 148 787

C143 778 134 774 127 778

C121 781 118 787 113 807

C108 828 105 834 101 840

C97 846 91 849 82 849

C63 849 51 837 47 816

C44 802 47 782 55 769

C61 759 60 760 67 765

L74 770

L71 773

C64 782 60 797 61 809

C62 822 69 830 79 830

C88 830 91 825 97 804

C100 791 104 778 106 773

C112 762 119 757 131 757

C148 757 160 768 165 788

C167 796 166 815 164 825

C161 834 155 847 151 852

L149 855

L143 850

Z

M2 751

C2 750 1 746 2 740

L2 731

L14 731

L27 731

L27 741

L27 752

L15 752

C8 752 3 751 2 751

Z

M48 751

C48 750 48 746 48 740

L48 730

L106 731

L164 731

L164 741

L164 751

L106 751

C75 751 49 751 48 751

Z

M91 722

C52 713 34 675 54 645

C56 641 61 635 64 633

L70 629

L36 629

L2 629

L2 619

L2 609

L72 609

C141 609 143 608 145 607

C146 605 147 604 147 604

C147 603 150 603 156 603

L165 603

L165 609

C165 620 160 625 150 625

C148 625 146 626 145 626

C145 626 148 630 152 633

C167 649 171 671 161 691

C154 705 142 715 126 720

C117 723 101 724 91 722

Z

M116 701

C128 699 139 691 145 679

C148 674 148 672 148 664

C148 656 148 654 145 648

C141 641 134 634 128 631

C124 629 122 629 107 629

C92 629 90 629 86 631

C79 634 72 642 67 650

C64 656 64 657 64 666

C64 674 64 676 67 680

C75 697 96 706 116 701

Z

M94 600

C81 597 68 589 60 580

C51 570 46 555 46 541

C46 509 71 484 103 483

L112 483

L112 531

L113 579

L118 578

C129 577 142 567 147 556

C150 551 150 549 150 541

C150 528 147 521 140 514

C137 511 134 509 133 509

C132 509 132 508 132 508

C132 506 136 492 137 491

C139 489 153 501 158 511

C165 522 168 539 165 553

C159 581 137 599 108 600

C103 600 96 600 94 600

Z

M98 541

L98 502

L93 503

C82 504 70 514 65 524

C62 529 62 531 62 541

C62 551 62 552 65 558

C68 564 74 571 80 574

C84 576 93 579 96 579

C97 579 98 571 98 541

Z

M6 501

C6 498 10 496 81 466

C122 448 156 433 156 432

C156 432 137 424 114 414

L72 396

L40 410

C23 417 8 424 8 424

C8 424 8 422 7 421

C7 418 8 418 37 405

L66 393

L37 380

C10 369 8 368 8 365

C8 364 8 363 8 363

C9 363 23 369 40 376

C57 383 71 390 72 390

C74 390 156 353 156 352

C155 352 125 339 88 322

C0 285 6 287 6 285

C6 284 6 282 6 282

C7 282 42 297 85 316

C165 350 167 351 164 355

C163 356 144 364 121 374

C98 384 80 392 80 393

C80 393 98 401 121 411

C144 421 163 430 164 431

C165 432 165 433 164 434

C163 435 9 504 6 504

C6 504 6 502 6 501

Z

M119 294

C113 292 107 285 104 278

C100 271 97 259 98 249

C98 239 99 224 102 216

L103 211

L91 212

C79 212 77 212 72 215

C64 219 59 224 55 232

C49 246 52 263 64 283

C66 286 66 286 64 287

C62 288 62 288 60 286

C57 282 49 266 48 259

C44 241 50 223 64 214

C75 206 75 206 119 206

C151 205 158 205 158 204

C158 203 160 203 162 203

C164 203 164 203 163 206

C162 209 158 211 151 211

L146 212

L151 217

C161 228 166 242 166 258

C166 266 165 269 164 274

C160 282 151 291 143 294

C135 297 126 297 119 294

Z

M143 289

C149 285 154 281 157 275

C160 271 160 269 160 260

C161 240 153 222 140 214

C136 212 135 211 122 212

L109 212

L108 216

C103 230 102 254 104 266

C107 277 115 287 123 290

C128 292 138 291 143 289

Z

M107 154

L54 111

L54 154

L53 197

L51 197

L49 197

L49 150

L49 104

L51 103

C52 103 70 117 106 147

L159 190

L159 147

L159 104

L161 105

L164 105

L164 151

L164 197

L162 197

C159 198 149 189 107 154

Z

M97 112

C83 109 72 104 63 95

C33 65 46 19 87 5

C91 3 96 2 101 2

L109 2

L109 54

C109 99 110 107 111 107

C115 107 124 104 131 100

C142 95 151 87 156 76

C160 69 160 67 160 58

C161 47 159 40 154 31

C151 26 143 18 139 16

C137 16 137 15 137 13

C138 10 139 10 146 15

C160 25 169 46 166 64

C162 84 146 102 125 109

C116 112 104 113 97 112

Z

M104 57

L104 7

L98 8

C81 10 64 22 57 37

C46 60 55 87 78 100

C84 103 96 106 101 106

L104 107

L104 57

Z

"/>

<path fill="#afafaf" stroke="none" d="
M144 851

C140 849 137 847 137 847

C135 846 136 845 138 842

C146 831 151 818 151 805

C151 795 150 789 146 784

C142 779 139 777 133 777

C123 777 120 781 113 809

C110 819 106 830 105 833

C100 844 94 848 82 848

C65 849 54 839 48 822

C46 814 45 796 48 787

C50 779 55 767 59 763

L61 760

L67 765

L73 770

L70 775

C64 783 61 792 61 804

C61 813 61 815 64 820

C68 827 72 830 79 830

C83 830 85 829 87 827

C91 824 93 820 97 803

C104 776 109 765 119 760

C123 758 124 757 132 758

C140 758 142 759 146 761

C149 763 153 765 155 767

C158 772 163 781 165 787

C167 796 166 813 164 824

C161 833 155 847 151 852

L149 854

L144 851

Z

M2 741

L2 731

L14 731

L27 730

L27 740

L27 751

L14 751

L1 751

L2 741

Z

M48 741

L48 731

L106 731

L164 730

L164 740

L164 751

L105 751

L47 751

L48 741

Z

M94 722

C69 718 50 700 46 678

C45 669 46 660 49 652

C52 646 60 636 65 632

L70 629

L36 629

L2 629

L2 619

L2 609

L72 609

C141 609 143 608 145 607

C146 605 146 604 147 603

C147 603 150 603 155 603

L164 603

L164 610

C165 615 164 617 162 620

C159 624 156 625 149 625

L143 626

L150 632

C173 653 171 691 144 711

C131 721 112 725 94 722

Z

M116 701

C128 699 140 690 145 679

C148 674 148 672 148 664

C148 656 148 654 145 648

C141 641 134 633 128 630

C125 629 121 629 107 629

C92 629 90 629 86 631

C79 634 71 642 67 650

C64 656 64 657 64 666

C64 674 64 676 67 680

C75 697 97 706 116 701

Z

M92 599

C61 592 42 564 46 532

C49 511 64 493 84 486

C91 484 105 482 109 483

L113 484

L113 532

L113 580

L115 579

C128 576 134 573 140 566

C143 564 146 559 147 556

C150 551 150 549 150 541

C150 533 150 530 148 525

C145 520 139 512 134 508

L132 507

L134 500

C136 490 136 490 141 493

C149 497 160 511 163 523

C167 533 167 551 163 562

C160 569 152 580 147 585

C141 590 131 596 124 598

C115 600 100 601 92 599

Z

M98 541

L98 502

L92 503

C76 507 65 518 62 533

C59 546 63 557 71 566

C77 573 81 575 88 578

C98 581 98 585 98 541

Z

M7 501

C7 498 7 498 74 469

C112 452 145 438 149 436

L157 432

L114 414

L72 395

L41 409

C23 417 9 423 8 423

C8 424 8 422 8 421

C8 418 8 418 36 406

C52 399 65 393 65 393

C65 393 52 387 36 380

C10 369 8 367 8 365

C8 364 8 363 8 363

C9 363 23 369 40 376

C57 383 71 390 72 390

C74 390 156 353 156 352

C155 352 122 337 81 319

C7 288 7 287 7 284

L7 282

L12 284

C15 285 50 300 90 318

L164 350

L163 353

C163 356 162 356 121 374

C98 384 80 392 80 393

C80 393 98 401 121 411

C162 429 163 429 163 432

C164 435 163 435 158 438

C152 440 10 502 8 503

C7 504 7 503 7 501

Z

M119 294

C110 290 104 281 100 269

C96 255 97 231 103 212

C104 211 103 211 97 211

C71 211 56 221 52 241

C50 252 54 265 62 279

C66 285 66 286 64 287

C62 288 62 288 60 286

C57 282 49 266 48 259

C46 250 46 245 48 236

C51 224 59 215 71 210

C79 206 88 206 123 206

C153 206 158 205 158 204

C159 202 164 202 164 204

C164 208 160 211 152 211

L145 211

L150 216

C165 233 170 260 162 277

C153 293 133 301 119 294

Z

M143 289

C157 282 163 269 160 251

C158 232 149 218 138 213

C134 211 131 211 121 211

L109 211

L108 213

C105 223 103 233 103 248

C103 261 103 264 105 269

C111 284 119 291 131 291

C136 291 138 291 143 289

Z

M106 154

L54 111

L54 154

L53 197

L51 197

L49 197

L49 150

L49 104

L51 104

C52 104 70 118 106 147

L158 190

L158 147

L159 104

L161 105

L164 105

L164 151

L164 198

L161 198

C160 198 142 183 106 154

Z

M88 110

C79 107 70 102 62 94

C36 68 44 25 79 8

C86 4 98 2 105 2

L109 2

L109 54

L109 107

L111 106

C121 106 137 99 146 90

C162 75 165 53 155 33

C153 28 144 19 140 17

C138 16 138 15 138 13

C138 10 138 10 142 12

C148 15 152 19 156 26

C164 37 167 50 165 63

C163 85 144 104 121 110

C113 112 96 112 88 110

Z

M105 57

L105 8

L101 7

C90 7 76 14 66 23

C47 43 47 70 66 90

C74 99 89 106 101 106

L105 107

L105 57

Z

"/>

<path fill="#9f9f9f" stroke="none" d="
M142 850

L135 845

L138 842

C146 831 151 817 151 805

C151 795 150 789 146 784

C140 775 128 774 122 782

C119 786 117 791 112 811

C105 836 102 843 93 847

C88 849 78 849 71 847

C61 844 52 834 48 821

C46 813 45 796 48 787

C50 779 55 768 59 763

L61 760

L67 765

L74 770

L72 772

C65 779 61 791 61 804

C61 813 61 815 64 820

C68 827 72 830 79 830

C83 830 85 829 87 827

C91 824 93 820 97 801

C102 782 106 773 110 767

C116 760 120 758 132 758

C140 758 141 758 146 761

C155 766 161 774 164 786

C166 795 166 813 164 824

C161 833 155 847 151 852

L149 854

L142 850

Z

M2 741

L2 731

L14 731

L27 730

L27 740

L27 751

L14 751

L1 751

L2 741

Z

M48 741

L48 731

L106 731

L164 730

L164 740

L164 751

L105 751

L47 751

L48 741

Z

M94 723

C80 720 65 712 57 702

C46 688 43 668 49 652

C52 646 60 636 65 632

L70 629

L36 629

L2 629

L2 619

L2 609

L72 609

C134 609 142 608 144 607

C145 606 147 605 147 604

C147 603 148 602 155 603

L164 603

L164 609

C165 620 160 625 149 625

L143 626

L150 632

C168 648 171 675 158 696

C147 713 130 722 109 723

C103 723 97 723 94 723

Z

M123 700

C134 695 144 685 147 674

C151 661 147 647 137 637

C129 629 127 629 106 629

L89 629

L83 632

C76 637 71 642 67 651

C64 655 64 657 64 666

C64 674 64 676 67 680

C72 690 82 698 94 701

C101 703 115 702 123 700

Z

M93 599

C84 597 71 591 65 586

C59 580 52 570 50 562

C39 531 53 498 83 487

C90 484 104 482 109 483

L113 484

L113 532

L113 579

L116 579

C130 577 141 569 147 556

C150 551 150 550 150 541

C150 531 150 529 147 524

C144 518 139 511 134 509

L132 508

L134 500

C135 496 136 492 136 492

C137 490 144 494 150 500

C156 506 162 516 164 526

C167 536 166 550 163 560

C157 579 143 592 124 598

C116 600 100 601 93 599

Z

M98 541

L98 502

L92 503

C76 507 64 519 61 535

C60 547 63 558 71 566

C77 573 81 575 88 578

C98 581 98 585 98 541

Z

M7 501

C7 498 7 498 81 466

C122 448 156 433 156 433

C156 432 137 424 114 414

L72 395

L42 409

C3 425 7 424 8 421

C8 418 9 418 36 406

C52 399 65 393 65 393

C65 393 52 387 36 380

C11 369 8 367 8 365

C8 364 8 363 8 363

C9 363 23 369 40 376

C57 383 71 390 72 390

C74 390 156 353 156 352

C155 352 122 337 81 319

C8 288 7 287 7 284

L7 282

L12 284

C15 285 50 301 90 318

L164 350

L163 353

C163 356 162 356 121 374

C98 384 80 392 80 393

C80 393 98 401 121 411

C162 429 163 429 163 432

C163 434 163 435 162 436

C162 436 127 451 85 469

C43 488 8 503 8 503

C7 504 7 503 7 501

Z

M119 294

C100 284 92 253 102 219

C103 215 104 211 104 211

C104 210 88 211 81 212

C72 214 67 217 61 223

C55 230 52 237 52 248

C52 259 54 266 61 278

C65 285 66 286 64 287

C61 289 60 287 54 275

C39 245 48 217 75 208

C81 206 83 206 119 206

C151 205 158 205 158 204

C159 202 164 202 164 204

C164 208 160 211 152 211

L145 211

L149 215

C165 231 171 260 162 277

C156 289 146 296 132 296

C125 297 123 296 119 294

Z

M143 289

C150 285 155 281 158 273

C160 268 161 266 161 258

C161 242 155 227 145 218

C138 211 135 211 121 211

L109 211

L108 213

C103 226 101 251 104 263

C107 276 113 286 122 290

C127 292 136 292 143 289

Z

M106 154

L54 111

L54 154

L53 197

L51 197

L49 197

L49 150

L49 104

L51 104

C52 104 71 118 106 147

L158 190

L158 147

L159 104

L161 105

L164 105

L164 151

L164 198

L161 198

C160 198 142 183 106 154

Z

M90 110

C80 108 70 102 63 95

C29 61 52 7 101 2

L109 1

L109 54

L109 107

L111 107

C116 107 126 103 133 100

C163 84 170 47 148 24

C145 21 142 18 140 17

C138 16 138 15 138 13

C138 12 138 11 138 11

C140 11 148 16 151 19

C168 36 170 64 158 84

C150 96 135 106 121 110

C114 112 97 112 90 110

Z

M105 57

L105 8

L101 7

C98 7 93 9 89 10

C52 22 40 63 66 90

C74 99 89 106 101 106

L105 107

L105 57

Z

"/>

<path fill="#8f8f8f" stroke="none" d="
M143 850

C139 848 137 846 137 845

C137 845 138 842 140 840

C144 834 148 824 150 818

C151 810 151 797 150 791

C146 779 134 773 125 779

C121 782 117 789 114 805

C106 833 102 842 93 846

C90 848 88 849 81 848

C70 848 64 845 58 839

C47 828 43 806 48 786

C50 779 55 767 59 763

L61 760

L67 765

L73 770

L70 774

C60 787 58 808 64 820

C68 827 72 830 79 830

C83 830 85 829 87 827

C91 824 93 820 98 799

C105 774 109 765 119 760

C123 758 125 758 131 758

C150 758 163 771 165 795

C168 814 161 839 151 852

L149 854

L143 850

Z

M2 741

L2 731

L14 731

L27 730

L27 740

L27 751

L14 751

L1 751

L2 741

Z

M48 741

L48 731

L106 731

L164 730

L164 740

L164 751

L105 751

L47 751

L48 741

Z

M92 722

C55 714 36 680 51 650

C54 645 56 641 62 636

L70 629

L35 629

L1 629

L2 619

L2 609

L72 609

C136 609 143 608 145 607

C146 606 147 605 147 604

C147 603 148 602 155 603

L164 603

L164 609

C165 620 160 625 149 625

L144 626

L150 632

C161 643 166 654 166 668

C166 692 151 712 126 720

C117 723 102 724 92 722

Z

M119 701

C131 697 140 690 145 679

C148 674 148 672 148 664

C148 656 148 654 145 648

C141 640 134 633 128 630

C125 629 122 629 106 629

L89 629

L83 632

C76 637 70 643 67 650

C64 655 64 657 64 666

C64 674 64 676 66 680

C75 697 99 707 119 701

Z

M97 600

C79 597 61 585 53 570

C48 559 46 553 46 541

C46 515 61 495 86 486

C91 484 105 482 109 483

L112 484

L113 532

L113 579

L116 579

C130 577 142 568 148 556

C150 552 150 550 150 541

C150 531 150 529 147 524

C144 518 139 511 134 509

L132 508

L134 500

C135 496 136 492 136 492

C137 490 143 494 150 500

C156 507 162 518 165 527

C166 535 166 550 164 557

C160 573 148 587 134 594

C122 599 109 601 97 600

Z

M98 541

L98 502

L93 503

C86 504 78 508 72 514

C56 530 58 560 77 572

C83 576 91 579 95 579

L98 580

L98 541

Z

M7 501

C7 498 8 497 82 466

C123 448 156 433 156 432

C156 432 146 428 134 422

C122 417 103 409 92 404

L72 395

L43 408

C27 415 13 421 11 422

C8 424 8 424 8 421

C8 418 9 418 37 406

C52 399 65 393 65 392

C64 392 51 386 36 380

C10 368 7 367 7 365

C7 364 8 363 8 363

C8 363 23 369 40 376

C57 384 71 390 72 390

C74 390 156 353 156 353

C156 352 122 337 81 320

C9 288 7 287 7 284

L7 282

L25 290

C35 294 70 309 103 324

L164 350

L163 353

C163 356 162 356 124 373

C103 382 83 390 82 391

L78 393

L121 411

C162 429 164 430 164 432

C164 435 161 436 86 469

C43 488 8 503 7 503

C7 503 7 502 7 501

Z

M121 295

C100 287 92 254 102 219

C103 215 104 211 104 211

C104 210 88 211 81 212

C68 215 59 222 54 233

C53 238 52 241 52 249

C52 259 55 267 62 279

C64 283 66 286 65 286

C65 286 64 287 63 287

C62 288 61 288 57 281

C52 271 48 260 47 252

C46 239 50 226 59 218

C64 213 67 211 75 208

C81 206 83 206 119 206

C151 205 158 205 158 204

C159 202 164 202 164 204

C164 208 159 211 152 211

L145 211

L149 215

C164 230 170 258 162 276

C157 288 146 296 133 296

C128 296 124 296 121 295

Z

M141 290

C148 288 155 281 158 273

C161 268 161 266 161 258

C161 242 156 230 147 220

C140 212 136 211 122 211

L109 211

L108 213

C104 225 101 249 103 261

C106 275 112 286 121 290

C126 292 135 292 141 290

Z

M107 154

L54 111

L54 154

L53 197

L51 197

L49 197

L49 150

L49 104

L51 104

C52 104 71 118 106 147

L158 190

L159 148

L159 105

L161 105

L164 104

L164 151

L164 198

L161 197

C160 197 141 182 107 154

Z

M90 110

C76 106 61 96 54 84

C34 49 58 6 101 2

L109 1

L109 54

L109 107

L114 106

C121 105 130 102 137 97

C154 87 163 68 161 49

C158 36 151 24 142 18

C138 15 136 13 138 11

C141 9 155 22 160 31

C169 48 168 69 157 84

C149 97 135 106 121 110

C113 112 97 112 90 110

Z

M105 57

L105 8

L101 8

C90 8 77 14 67 23

C49 39 47 65 61 84

C69 97 86 106 101 106

L105 107

L105 57

Z

"/>

<path fill="#7f7f7f" stroke="none" d="
M143 850

C139 848 137 846 137 845

C137 845 138 842 140 840

C152 821 155 795 145 783

C138 774 126 775 120 785

C119 787 116 797 113 806

C106 834 103 840 95 845

C91 848 90 848 82 848

C74 848 71 848 67 846

C53 839 46 824 46 803

C46 789 50 776 57 766

L61 761

L67 765

C70 767 72 769 72 770

C73 770 72 772 70 774

C60 787 58 808 64 820

C67 827 71 829 79 829

C89 830 91 826 98 800

C103 782 106 772 111 766

C120 755 141 755 153 766

C162 775 166 786 166 803

C166 820 161 836 153 848

C151 852 149 854 149 854

C149 854 146 853 143 850

Z

M2 741

L2 731

L14 731

L27 730

L27 740

L27 751

L14 751

L1 751

L2 741

Z

M48 741

L48 731

L106 731

L164 730

L164 740

L164 751

L105 751

L47 751

L48 741

Z

M95 722

C75 719 59 708 51 692

C41 672 45 651 62 636

L70 629

L35 629

L1 629

L2 619

L2 609

L72 609

C136 609 143 608 145 607

C146 606 147 605 147 604

C147 603 148 602 155 603

L164 603

L164 609

C165 620 160 625 149 625

L143 626

L148 630

C167 647 171 675 158 696

C153 703 145 711 138 715

C127 721 108 725 95 722

Z

M120 701

C131 697 141 689 146 678

C148 674 148 671 148 664

C148 655 148 654 145 648

C141 640 134 634 129 631

C125 629 123 629 107 629

C91 629 89 629 85 631

C79 634 70 643 67 650

C64 655 64 657 64 666

C64 674 64 676 66 680

C71 690 82 698 94 701

C101 703 112 703 120 701

Z

M97 600

C74 597 55 580 48 557

C46 549 46 533 48 525

C53 506 69 491 87 486

C93 484 106 482 109 483

L112 484

L113 532

C113 558 113 580 113 580

C113 580 116 579 119 578

C130 576 142 567 147 557

C150 551 150 550 150 541

C150 531 150 529 147 524

C144 518 139 511 134 509

C133 508 132 507 132 506

C132 506 133 502 134 498

L137 490

L141 493

C151 498 159 510 163 524

C166 533 166 548 164 557

C156 585 128 604 97 600

Z

M98 541

L98 502

L94 502

C77 506 64 518 61 535

C59 550 67 568 81 575

C86 577 92 579 95 579

L98 580

L98 541

Z

M7 501

C7 498 8 497 82 466

C123 448 156 433 156 433

C156 432 121 416 74 396

C72 396 65 398 40 409

C8 423 6 424 8 419

C8 418 21 412 37 405

C53 399 65 393 65 392

C64 392 51 386 36 380

C10 368 8 367 8 365

C8 364 8 363 8 363

C9 363 23 369 40 376

C57 384 71 390 72 390

C74 390 156 353 156 353

C156 352 122 337 81 319

C9 288 7 287 7 284

L7 282

L22 289

C31 292 66 308 101 323

L164 350

L163 353

C163 356 162 356 122 374

C99 384 80 392 79 392

C79 393 98 401 121 411

C162 429 163 430 163 432

C163 435 161 436 86 469

C43 488 8 503 7 503

C7 503 7 502 7 501

Z

M121 295

C111 291 102 279 99 263

C96 250 98 230 103 213

C104 211 104 211 96 211

C75 211 62 218 55 232

C52 237 52 239 52 248

C52 259 54 266 61 278

C65 285 66 286 64 287

C62 288 62 288 60 285

C53 275 47 257 47 248

C46 238 51 226 57 219

C62 214 67 211 75 208

C81 206 83 206 120 206

C152 205 159 205 159 204

C159 203 160 203 161 203

C164 203 164 206 161 208

C159 210 157 211 152 211

L145 211

L150 216

C160 227 166 242 166 258

C166 268 164 275 158 282

C150 294 134 299 121 295

Z

M141 290

C143 289 148 286 150 284

C159 276 162 266 160 251

C159 242 156 232 152 226

C149 220 140 213 136 211

C134 211 127 211 121 211

L109 211

L107 217

C101 235 101 261 107 275

C110 281 116 287 121 290

C126 292 135 292 141 290

Z

M107 154

L54 110

L54 153

L53 197

L51 197

L49 197

L49 150

L49 104

L51 104

C52 104 71 119 106 147

L158 190

L159 148

L159 105

L161 105

L164 104

L164 151

L164 198

L161 197

C160 197 141 182 107 154

Z

M90 110

C77 106 65 99 58 89

C31 54 55 7 102 2

L109 1

L109 54

L109 107

L112 107

C117 107 128 103 135 99

C142 95 153 84 156 76

C160 68 162 58 160 49

C159 36 151 24 142 18

C138 15 136 13 138 11

C139 10 146 14 152 20

C167 37 170 63 159 82

C152 93 140 104 126 108

C117 111 98 112 90 110

Z

M105 57

L105 7

L98 8

C86 9 76 14 67 22

C39 49 51 93 90 105

C93 106 98 106 100 106

L105 107

L105 57

Z

"/>

<path fill="#6f6f6f" stroke="none" d="
M142 850

C139 848 137 846 137 845

C137 845 138 843 140 840

C158 812 154 775 131 777

C122 778 119 782 113 807

C106 833 103 840 95 845

C91 848 90 848 82 848

C73 848 71 848 67 845

C53 838 47 825 47 804

C46 788 50 776 58 765

L61 761

L67 765

C70 767 72 769 72 770

C73 770 72 772 70 774

C57 791 57 821 71 828

C75 830 83 830 86 828

C91 825 93 819 98 800

C104 775 109 766 117 761

C121 758 123 758 131 758

C138 758 141 758 145 760

C151 763 156 769 160 775

C167 789 167 816 160 836

C157 842 151 853 149 853

C148 853 145 852 142 850

Z

M3 741

L3 732

L15 732

L27 732

L27 741

L27 751

L15 751

L3 751

L3 741

Z

M49 741

L49 732

L106 732

L164 732

L164 741

L164 751

L106 751

L49 751

L49 741

Z

M97 723

C88 721 83 720 74 715

C64 710 56 702 51 692

L47 684

L47 671

C47 658 47 658 50 651

C53 646 56 642 61 636

L69 629

L36 629

L3 629

L3 619

L3 609

L73 609

C140 609 143 608 145 607

C146 606 147 604 147 604

C147 603 149 603 155 603

C164 603 164 603 165 610

C165 620 159 625 149 626

L143 626

L148 630

C159 640 166 653 165 668

C165 678 164 683 160 691

C154 704 138 717 123 721

C116 723 103 724 97 723

Z

M119 701

C132 697 140 689 145 679

C148 674 148 672 148 664

C148 655 148 653 145 649

C141 641 136 635 130 631

L125 629

L107 629

L89 629

L84 631

C70 639 61 657 63 670

C65 678 68 684 74 690

C85 701 104 706 119 701

Z

M97 600

C73 596 54 579 48 557

C46 549 46 533 48 525

C53 506 70 490 90 485

C93 484 100 484 104 484

L113 484

L113 532

C113 569 113 579 114 579

C117 579 125 577 130 574

C136 571 145 562 148 556

C151 549 152 541 151 535

C149 524 142 513 134 509

C132 508 132 507 132 505

C133 503 134 499 135 496

L137 490

L141 493

C149 498 158 509 163 521

C166 529 166 546 164 556

C159 576 142 593 122 598

C115 600 103 600 97 600

Z

M99 541

C99 516 98 502 97 502

C96 501 86 504 82 506

C67 514 59 532 61 547

C64 562 74 573 89 578

C91 579 94 579 96 579

L99 580

L99 541

Z

M7 501

C7 498 10 497 82 466

C123 448 157 433 157 432

C157 432 79 398 73 396

C72 396 60 401 41 409

C24 416 9 423 9 423

C8 423 8 422 8 420

C8 418 13 416 37 406

C53 399 65 393 65 392

C64 392 51 386 36 379

C10 368 8 367 8 365

C8 364 8 363 8 363

C8 363 23 369 40 376

C57 384 71 390 72 390

C73 390 150 356 155 354

C158 352 165 356 74 316

C13 290 7 287 7 285

C7 284 7 282 7 282

C8 282 43 298 86 316

C163 350 164 350 163 353

C163 355 161 356 122 374

C99 384 80 392 79 392

C79 393 98 401 121 411

C162 429 164 430 164 432

C164 435 161 436 90 467

C50 485 15 500 12 501

L6 504

L7 501

Z

M121 295

C112 292 103 279 99 266

C97 254 98 229 103 213

C104 211 104 211 95 211

C69 210 53 223 52 245

C51 256 55 270 63 281

C65 285 65 285 64 287

C62 288 62 288 60 286

C58 282 52 270 50 265

C44 248 48 228 59 218

C62 215 67 212 70 210

L77 207

L117 207

C154 206 158 206 159 204

C160 202 164 202 164 204

C164 208 159 211 152 211

L145 211

L150 216

C161 228 166 243 165 260

C165 268 164 271 162 276

C159 283 154 289 146 292

C139 296 128 298 121 295

Z

M143 289

C150 286 157 278 159 271

C163 261 161 242 154 229

C151 224 143 215 138 213

C135 211 132 211 122 211

L109 211

L108 213

C104 225 101 250 103 262

C108 286 124 298 143 289

Z

M107 154

L54 110

L54 153

L53 197

L51 197

L49 197

L48 150

L48 103

L51 104

C52 104 74 121 106 147

C134 171 158 190 159 190

C159 191 160 174 160 148

C160 105 160 105 162 105

C163 105 164 105 164 151

L164 198

L161 197

C160 197 141 182 107 154

Z

M90 110

C57 102 39 69 50 39

C58 18 81 2 102 2

L108 3

L109 55

L109 107

L113 107

C119 106 131 102 137 97

C155 86 164 67 161 49

C158 36 151 23 142 18

C138 15 136 12 138 11

C140 10 148 16 153 21

C162 32 166 44 165 60

C165 69 164 70 161 78

C157 85 155 88 150 93

C142 101 130 108 120 110

C113 112 98 112 90 110

Z

M105 56

L105 6

L100 7

C87 9 76 14 67 23

C42 47 48 85 80 100

C87 104 102 108 104 107

C104 107 105 84 105 56

Z

"/>

<path fill="#5f5f5f" stroke="none" d="
M143 850

C139 848 137 846 137 846

C136 845 137 843 139 841

C140 839 143 835 145 830

C153 813 153 792 145 783

C141 778 137 776 131 777

C122 778 120 782 112 810

C109 822 105 832 103 836

C98 846 91 849 80 848

C64 847 53 837 48 820

C46 812 46 795 48 787

C51 777 59 762 62 762

C63 762 73 769 73 770

C72 770 71 773 69 775

C64 783 61 791 61 801

C60 819 66 830 79 830

C88 830 92 825 97 802

C102 783 105 776 109 770

C114 760 123 757 135 758

C149 759 160 770 164 787

C166 797 166 817 163 827

C159 838 151 854 149 853

C148 853 146 852 143 850

Z

M3 741

L3 732

L15 732

L27 732

L27 741

L27 751

L15 751

L3 751

L3 741

Z

M49 741

L49 732

L106 732

L164 732

L164 741

L164 751

L106 751

L49 751

L49 741

Z

M97 722

C73 719 53 704 48 684

C47 679 46 675 47 668

C47 654 51 647 62 636

L69 629

L36 629

L3 629

L3 619

L3 609

L73 609

C140 609 143 608 145 607

C146 606 147 604 147 604

C147 603 149 603 155 603

C164 603 165 603 165 610

C165 620 159 625 148 625

L142 626

L148 630

C159 639 166 653 165 668

C165 683 161 694 150 705

C136 719 117 725 97 722

Z

M125 699

C133 695 140 688 145 680

C148 674 148 673 148 664

C148 655 148 653 145 648

C142 641 136 635 130 631

L125 629

L107 629

L89 629

L84 631

C78 635 70 643 67 649

C66 651 65 655 64 659

C61 669 64 678 71 687

C76 693 82 697 90 700

C96 702 98 703 108 702

C117 702 119 702 125 699

Z

M97 599

C75 597 57 582 49 562

C47 555 46 536 47 528

C53 502 77 484 104 484

L113 484

L113 532

L113 580

L117 579

C125 578 134 573 140 566

C152 554 154 538 147 523

C144 517 138 511 134 509

C132 508 132 508 133 503

C134 500 135 496 136 494

L137 490

L140 493

C149 498 159 509 163 521

C165 529 166 545 165 554

C159 584 129 604 97 599

Z

M99 541

C98 518 98 502 98 502

C96 501 87 504 81 507

C74 511 68 517 64 525

C61 531 61 533 61 541

C61 549 61 551 64 556

C69 567 75 572 86 577

C89 578 93 579 95 579

L99 580

L99 541

Z

M7 501

C7 498 11 497 82 466

C123 448 157 433 157 432

C157 432 79 398 73 396

C72 396 59 401 41 409

C23 416 9 423 8 423

C8 423 8 422 8 420

C8 418 13 416 37 406

C53 399 65 393 65 392

C64 392 51 386 36 379

C10 368 8 367 8 365

C8 364 8 363 8 363

C8 363 23 369 40 376

C57 384 71 390 72 390

C74 390 157 353 157 352

C156 352 122 337 81 319

C13 290 7 287 7 285

C7 283 7 282 8 283

C9 283 44 298 86 317

C160 349 163 350 163 353

C164 356 168 353 116 376

C96 385 80 392 79 392

C79 393 98 401 121 411

C161 429 164 430 164 432

C164 435 160 436 91 467

C51 484 15 500 12 501

L6 504

L7 501

Z

M123 295

C101 289 92 256 102 219

C103 215 104 211 104 211

C104 210 87 210 81 212

C64 215 53 228 52 245

C51 256 55 268 62 281

C65 285 65 285 64 287

C62 288 60 286 55 276

C50 267 49 262 48 255

C45 237 53 220 67 212

C76 207 79 207 119 207

C155 207 157 206 158 205

C160 202 164 202 164 204

C164 208 159 211 152 211

L145 211

L150 216

C161 228 166 243 165 261

C165 268 164 271 162 276

C157 288 146 295 133 296

C129 296 124 296 123 295

Z

M143 289

C150 286 157 278 160 269

C164 254 159 232 147 220

C140 212 137 211 122 211

C108 210 109 210 105 223

C103 233 102 253 103 262

C108 286 124 297 143 289

Z

M107 154

L54 110

L54 153

L53 196

L51 196

L49 197

L48 150

L48 103

L51 104

C52 104 75 122 105 147

C134 171 158 190 159 190

C159 191 160 175 160 148

C160 105 160 105 162 105

C163 105 164 105 164 151

L164 198

L161 197

C160 197 140 182 107 154

Z

M90 110

C47 99 32 48 64 18

C75 9 90 3 102 3

L109 3

L109 54

C109 83 109 107 109 107

C111 108 125 104 132 101

C137 98 141 95 146 90

C162 74 165 55 157 36

C153 27 148 21 142 18

C138 15 136 12 138 11

C141 9 154 21 159 30

C165 40 167 57 164 69

C159 87 145 102 125 109

C117 111 99 112 90 110

Z

M104 57

L105 6

L100 7

C86 9 74 15 65 25

C56 35 52 44 52 57

C51 73 60 89 74 98

C82 103 99 108 103 107

C104 107 104 89 104 57

Z

"/>

<path fill="#4f4f4f" stroke="none" d="
M143 850

C140 848 137 846 137 846

C137 846 138 842 141 838

C148 826 151 817 151 804

C151 794 151 793 148 787

C145 780 141 777 133 777

C128 776 128 777 124 779

C120 783 117 789 112 810

C104 842 97 850 79 848

C64 847 52 837 48 820

C46 812 46 796 48 786

C51 775 59 762 62 762

C62 762 65 763 67 765

C70 767 72 769 72 769

C73 769 71 772 69 775

C64 784 61 791 61 801

C60 819 66 830 79 830

C89 830 91 826 98 801

C105 775 107 770 114 763

C119 759 125 757 134 758

C154 759 166 776 166 803

C166 815 163 826 159 836

C156 844 151 853 149 853

C148 853 146 852 143 850

Z

M3 741

L3 732

L15 732

L27 732

L27 741

L27 751

L15 751

L3 751

L3 741

Z

M49 741

L49 732

L106 732

L164 732

L164 741

L164 751

L106 751

L49 751

L49 741

Z

M97 722

C79 720 63 710 53 696

C48 688 46 680 47 668

C47 654 51 647 62 636

L69 629

L36 629

L3 629

L3 619

L3 609

L73 609

C136 609 144 608 145 607

C146 606 147 605 147 604

C147 603 148 603 155 603

C163 603 163 603 164 605

C165 609 164 614 163 618

C160 623 156 626 148 626

L142 626

L148 630

C158 639 164 651 165 665

C166 676 165 682 160 692

C149 713 123 726 97 722

Z

M125 699

C133 695 140 688 145 680

C148 674 148 673 148 664

C148 655 148 653 145 648

C142 641 134 633 128 630

C123 628 91 628 86 630

C79 633 71 642 67 650

C64 657 63 658 63 665

C63 671 64 674 66 679

C70 689 80 697 91 701

C96 702 99 702 108 702

C117 702 119 702 125 699

Z

M97 600

C74 596 54 579 48 556

C46 548 46 532 49 524

C56 499 78 484 104 484

L113 484

L113 532

L113 580

L117 579

C128 577 138 571 144 561

C149 554 151 549 151 540

C151 528 145 516 136 510

C132 507 132 507 135 496

L137 490

L141 493

C147 496 156 507 159 514

C165 526 167 543 164 556

C159 576 143 593 122 598

C115 600 104 600 97 600

Z

M99 540

L99 501

L94 502

C88 503 78 508 74 512

C55 529 57 559 77 573

C83 576 91 579 95 579

L99 580

L99 540

Z

M7 501

C7 498 12 496 82 466

C123 448 157 433 157 432

C157 432 74 395 72 395

C71 395 57 402 40 409

C23 416 9 423 8 423

C8 423 8 422 8 420

C8 419 13 416 36 406

C52 399 65 393 65 393

C66 392 63 391 30 377

C10 368 7 367 7 365

C7 364 8 363 8 363

C8 363 22 369 39 376

C56 384 71 390 72 390

C74 390 158 353 157 352

C156 352 122 337 81 319

C14 290 7 287 7 285

C7 284 7 283 7 283

C8 283 43 298 86 316

C158 348 163 350 163 353

C164 355 162 356 121 374

C98 384 79 392 79 393

C79 393 98 401 121 412

C161 429 163 430 163 432

C163 435 160 437 103 461

C70 476 34 491 24 495

C7 503 6 503 7 501

Z

M122 295

C109 290 101 278 98 258

C97 248 98 232 102 220

C103 216 104 212 104 211

C104 211 99 210 92 211

C77 211 71 214 64 220

C48 234 48 257 63 282

C65 285 65 285 64 287

C62 288 61 287 56 278

C48 264 46 253 48 241

C50 224 59 213 76 208

C81 207 85 207 119 207

C155 207 157 206 158 205

C160 202 164 202 164 204

C164 205 162 207 161 208

C159 210 158 210 152 211

C148 211 146 211 146 211

C146 211 148 213 150 216

C160 227 166 244 165 260

C165 272 162 279 155 286

C146 295 132 299 122 295

Z

M143 289

C149 286 155 281 158 274

C167 256 156 222 139 213

C135 211 133 211 122 211

C108 211 109 210 105 223

C102 234 102 255 104 265

C109 288 125 297 143 289

Z

M107 154

L54 110

L54 153

L53 196

L51 196

L49 197

L49 150

C49 104 49 104 51 104

C52 104 74 121 105 147

C134 171 158 190 159 190

C159 190 160 171 160 148

C160 105 160 105 162 105

C163 105 164 105 164 151

L164 198

L161 197

C160 197 140 182 107 154

Z

M95 111

C84 109 72 103 63 95

C41 73 42 39 65 17

C75 9 91 2 103 2

L109 3

L109 55

L109 107

L112 107

C141 103 164 78 161 52

C160 39 153 27 144 19

C142 17 139 15 138 15

C137 16 137 12 138 11

C140 10 148 16 152 21

C161 30 166 43 166 57

C166 87 138 112 105 111

C101 111 96 111 95 111

Z

M105 57

L105 6

L100 7

C85 9 69 18 61 28

C55 37 52 44 52 55

C51 62 52 65 53 70

C60 91 79 105 103 107

C104 107 105 97 105 57

Z

"/>

<path fill="#3f3f3f" stroke="none" d="
M142 850

C139 848 137 846 137 846

C136 846 138 843 140 839

C152 821 155 801 148 787

C145 780 141 777 134 777

C129 776 128 777 125 779

C120 783 117 789 113 806

C106 834 102 841 95 845

C91 848 89 848 82 848

C72 848 66 846 60 840

C51 832 46 820 47 804

C47 799 47 791 48 788

C50 780 56 766 59 763

C61 761 62 761 65 764

C74 770 73 769 71 772

C70 774 68 777 66 780

C58 796 59 819 68 826

C73 831 82 831 87 828

C91 826 93 819 98 801

C104 779 107 772 112 766

C126 750 154 758 161 779

C167 794 167 813 161 831

C158 841 151 854 149 854

C148 854 146 852 142 850

Z

M3 741

L3 732

L15 732

L27 732

L27 741

L27 751

L15 751

L3 751

L3 741

Z

M49 741

L49 732

L106 732

L164 732

L164 741

L164 751

L106 751

L49 751

L49 741

Z

M97 723

C67 718 47 698 47 671

C46 656 52 644 65 633

L70 629

L36 629

L3 629

L3 619

L3 609

L73 609

C136 609 144 608 145 607

C146 606 147 605 147 604

C147 603 148 603 155 603

C163 603 163 603 164 605

C166 611 163 620 159 623

C157 624 153 625 149 625

L143 626

L148 630

C158 638 164 651 165 665

C166 675 164 682 160 692

C150 713 123 726 97 723

Z

M126 698

C135 694 141 687 146 678

C148 672 149 671 148 663

C148 652 145 646 138 638

C130 629 128 629 107 629

C87 629 86 629 76 637

C72 641 69 645 67 650

C64 657 63 658 63 665

C63 671 64 674 66 679

C70 689 79 696 90 700

C96 702 99 703 108 702

C117 702 119 702 126 698

Z

M97 599

C89 598 79 594 72 590

C61 583 51 569 48 556

C45 546 46 529 50 520

C58 498 80 484 104 484

L113 484

L113 532

L113 580

L117 579

C139 575 154 555 151 534

C149 523 143 515 135 509

L132 507

L134 499

L137 491

L140 492

C142 493 146 497 150 501

C160 511 165 525 165 542

C166 558 160 571 149 583

C135 596 116 602 97 599

Z

M99 540

L99 501

L94 502

C92 502 87 504 83 506

C52 521 54 566 87 578

C90 579 93 579 95 579

L99 580

L99 540

Z

M7 501

C7 498 12 496 78 467

C117 450 151 436 153 434

L158 432

L115 414

C92 404 73 396 72 396

C71 396 57 402 40 409

C23 416 9 423 8 423

C8 423 8 422 8 420

C8 419 13 416 36 406

C52 399 65 393 65 393

C65 392 52 386 36 380

C11 368 7 367 7 365

C7 364 8 363 8 363

C8 362 23 369 40 376

L72 390

L115 372

C138 361 157 353 157 353

C157 352 123 337 82 320

C17 291 7 287 7 285

C7 284 7 283 7 283

C8 283 43 298 86 316

C157 348 163 350 163 353

C164 355 162 356 121 374

C98 384 79 392 79 393

C79 393 98 401 121 412

C161 429 163 430 163 432

C163 435 159 437 97 464

C60 480 25 495 18 498

L6 503

L7 501

Z

M122 295

C109 290 101 278 98 258

C97 247 99 226 103 214

L105 210

L92 211

C77 211 71 213 63 221

C53 230 49 245 53 259

C54 265 60 278 64 283

C65 285 65 285 64 287

C62 288 61 287 56 278

C50 267 47 258 47 248

C47 230 56 216 72 209

C78 207 79 207 118 207

C154 206 158 206 159 204

C160 202 164 202 164 204

C164 205 163 206 162 208

C160 210 159 210 152 210

L144 211

L147 213

C152 217 159 228 162 237

C166 248 167 263 164 272

C162 275 160 280 158 283

C150 293 134 299 122 295

Z

M143 289

C149 286 155 281 158 274

C161 269 161 267 161 258

C161 242 156 228 147 219

C140 212 137 211 122 211

L109 211

L107 218

C102 233 101 253 104 265

C109 288 125 297 143 289

Z

M154 193

C151 190 127 171 101 149

L54 110

L54 153

L53 196

L51 196

L49 197

L49 150

C49 105 49 104 50 104

C52 104 58 108 121 160

C142 177 158 191 159 191

C159 191 160 171 160 148

C160 105 160 105 162 105

C163 105 164 105 164 151

C164 204 164 201 154 193

Z

M90 110

C86 108 80 106 76 104

C69 101 57 89 53 82

C44 64 45 44 56 28

C66 13 86 2 103 2

L109 3

L109 55

L109 108

L112 107

C145 102 166 75 160 46

C158 35 149 21 141 17

C137 15 137 14 138 12

C139 11 140 11 144 13

C160 24 169 48 164 69

C156 99 122 118 90 110

Z

M105 57

C105 27 104 7 104 7

C103 7 99 7 95 8

C60 15 41 50 57 80

C64 92 79 103 93 105

C96 106 99 107 100 107

C101 107 103 107 103 107

C104 107 105 97 105 57

Z

"/>

<path fill="#2f2f2f" stroke="none" d="
M142 850

C139 848 137 846 137 846

C136 846 138 843 140 839

C152 822 155 801 148 787

C145 780 141 777 133 777

C128 776 128 777 124 779

C120 783 117 788 114 804

C106 833 102 841 94 846

C91 848 89 848 81 848

C74 848 72 847 67 845

C61 842 55 836 52 830

C47 820 45 802 48 788

C50 781 55 769 59 764

L61 761

L65 764

C74 770 73 769 69 775

C58 791 57 817 68 826

C74 832 84 832 89 826

C92 823 94 817 100 794

C104 777 108 769 114 764

C124 755 142 756 153 766

C158 771 163 782 165 791

C167 806 164 828 157 841

C155 846 150 854 149 854

C148 854 146 852 142 850

Z

M3 741

L3 732

L15 732

L27 732

L27 741

L27 751

L15 751

L3 751

L3 741

Z

M49 741

L49 732

L106 732

L164 732

L164 741

L164 751

L106 751

L49 751

L49 741

Z

M88 720

C71 716 58 706 51 692

C48 684 47 683 47 674

C46 659 49 650 59 639

C61 636 65 633 67 631

L71 629

L37 629

L3 629

L3 619

L3 610

L71 610

C145 610 147 609 147 605

C147 603 147 603 155 603

L163 603

L164 607

C164 609 164 613 164 615

C162 623 157 625 146 626

L142 626

L145 628

C154 634 162 647 164 657

C170 686 152 713 122 721

C114 723 97 723 88 720

Z

M121 700

C148 690 157 661 140 640

C138 637 134 634 132 632

L127 629

L108 629

C89 628 88 628 84 631

C78 635 70 644 66 651

C60 664 62 678 73 689

C84 702 105 706 121 700

Z

M89 598

C69 592 53 576 48 556

C46 548 46 534 48 526

C54 501 75 485 102 484

L113 483

L113 531

C113 586 111 581 122 578

C134 574 143 566 148 555

C155 539 150 519 135 509

L132 507

L134 500

C136 491 137 491 142 494

C148 497 155 505 159 514

C168 531 168 551 159 568

C153 582 137 594 121 598

C113 600 97 600 89 598

Z

M99 540

C99 496 100 500 88 504

C72 509 62 522 61 539

C60 554 68 569 82 576

C86 578 97 580 98 580

C98 580 99 562 99 540

Z

M7 500

C7 499 20 493 82 466

C124 448 157 433 157 433

C157 432 73 395 72 395

C71 395 57 401 41 409

C24 416 10 422 10 422

C9 423 9 422 9 420

C9 418 11 417 37 406

C60 396 66 393 65 392

C64 392 51 386 36 379

C11 369 9 367 9 365

C8 363 9 363 9 363

C10 363 24 370 41 377

L72 391

L115 372

C144 359 157 353 156 352

C156 352 122 337 81 319

C17 291 7 287 7 285

C7 283 7 283 7 283

C8 283 43 298 86 316

C156 347 163 350 163 353

C164 355 162 356 121 374

C98 384 79 392 79 393

C79 393 98 401 121 412

C161 429 163 430 163 433

C163 435 159 437 86 469

C43 487 8 503 7 503

C7 503 7 502 7 500

Z

M124 296

C113 293 104 282 100 266

C97 254 99 227 103 215

L104 210

L92 211

C76 211 70 213 62 222

C57 227 55 229 54 234

C49 248 52 264 61 279

C65 285 65 286 64 287

C63 288 62 288 61 286

C57 281 52 271 50 264

C48 257 47 255 48 246

C48 234 51 227 57 220

C59 217 64 214 66 212

C76 207 80 207 120 207

C155 207 157 206 158 205

C160 202 164 202 164 204

C164 205 163 206 162 208

C160 210 159 210 152 210

L145 211

L150 216

C164 230 170 259 162 276

C156 288 146 295 133 296

C130 296 126 296 124 296

Z

M143 289

C154 284 161 274 161 261

C162 245 156 228 147 219

C139 211 137 210 122 210

L109 211

L107 218

C103 229 103 236 103 248

C103 266 106 277 114 285

C122 293 132 294 143 289

Z

M106 153

C78 130 54 111 53 111

C53 111 53 127 53 153

C53 195 52 196 51 196

C49 196 49 195 49 150

L49 105

L51 105

C53 105 66 115 106 148

C135 171 158 191 159 191

C159 191 160 171 160 148

C160 106 160 106 162 106

C163 106 164 106 164 151

L164 197

L161 196

C159 196 146 187 106 153

Z

M92 110

C72 106 55 91 49 73

C47 65 47 52 49 44

C55 22 76 5 100 3

L109 2

L109 55

C109 98 109 108 110 108

C113 108 127 103 132 101

C136 99 142 95 145 91

C162 75 166 54 156 34

C153 27 146 20 141 17

C138 15 137 13 139 12

C140 11 148 16 153 21

C161 30 165 44 165 57

C166 79 150 100 125 108

C116 111 101 112 92 110

Z

M105 57

C105 10 104 7 103 7

C98 7 87 10 81 12

C67 19 57 30 53 44

C52 49 51 52 52 60

C52 68 53 70 56 77

C60 87 69 96 79 101

C85 104 97 107 102 107

L105 108

L105 57

Z

"/>

<path fill="#1f1f1f" stroke="none" d="
M143 850

C139 848 137 846 137 846

C136 846 138 843 140 840

C152 822 155 801 148 787

C144 779 140 776 133 777

C122 777 119 781 112 808

C106 830 104 835 100 840

C96 845 92 847 86 848

C75 849 64 845 57 837

C45 824 43 795 53 774

C55 770 58 766 59 764

L61 761

L67 765

L72 770

L69 775

C58 792 57 816 68 826

C71 830 78 831 83 830

C89 828 93 822 96 809

C104 777 107 770 114 764

C124 755 141 756 152 766

C158 771 163 781 165 791

C167 806 164 828 157 841

C155 846 150 854 149 853

C148 853 146 852 143 850

Z

M3 741

L3 732

L15 732

L27 732

L27 741

L27 751

L15 751

L3 751

L3 741

Z

M49 741

L49 732

L106 732

L164 732

L164 741

L164 751

L106 751

L49 751

L49 741

Z

M89 721

C69 716 53 701 48 683

C46 677 46 666 48 660

C50 650 57 640 66 632

L71 629

L37 629

L3 629

L2 619

L2 610

L73 609

C148 609 147 609 147 604

C147 603 147 603 155 603

L163 603

L164 607

C165 613 163 618 160 622

C157 624 156 625 150 625

L142 626

L146 629

C156 637 162 647 165 658

C166 666 165 679 162 686

C156 703 140 717 121 721

C113 723 97 723 89 721

Z

M121 701

C135 696 144 686 148 671

C149 666 150 664 149 659

C146 647 140 637 131 631

L126 629

L107 629

L88 629

L83 631

C76 636 71 642 67 650

C63 657 63 659 63 665

C63 672 64 674 66 679

C75 698 100 708 121 701

Z

M90 598

C72 594 57 580 50 562

C46 553 46 537 48 527

C54 502 75 485 102 484

L113 483

L113 531

C113 586 111 581 123 578

C134 574 143 567 148 556

C155 539 150 518 135 508

L132 507

L134 500

C135 496 137 492 137 492

C138 491 147 497 151 502

C163 515 168 536 164 555

C160 576 143 592 121 598

C114 600 98 600 90 598

Z

M99 540

C99 496 99 500 89 503

C78 506 69 515 64 525

C60 533 60 547 63 556

C66 564 74 572 82 575

C88 578 96 581 98 580

C98 580 99 562 99 540

Z

M7 501

C7 499 18 493 82 466

C124 448 157 433 157 433

C157 432 72 395 72 395

C71 395 58 401 41 409

C25 416 10 422 10 422

C9 423 9 422 9 420

C9 418 11 417 37 406

C53 399 66 393 66 393

C66 392 59 389 51 386

C9 367 9 367 9 365

C9 363 11 364 40 377

L72 391

L115 372

C146 358 157 353 156 352

C155 352 122 337 81 319

C18 291 7 287 7 285

C7 283 7 283 7 283

C8 283 43 298 86 316

C156 347 163 350 163 353

C164 355 161 356 121 374

C98 384 79 392 79 393

C79 393 98 401 121 412

C161 429 163 430 163 433

C163 435 159 437 86 469

C44 487 9 502 8 502

C7 503 6 502 7 501

Z

M122 295

C112 291 103 280 100 266

C98 256 98 232 102 220

L104 211

L94 210

C79 210 70 214 62 222

C52 232 49 247 54 263

C55 268 59 275 61 278

C65 284 65 286 64 287

C62 288 60 286 55 275

C49 265 48 257 48 247

C47 232 53 221 65 214

C75 207 79 207 120 207

C155 207 157 206 159 205

C163 200 165 203 162 208

C160 210 159 210 152 210

L144 211

L150 216

C160 227 165 240 165 258

C165 268 165 269 162 275

C159 282 151 291 144 294

C138 296 128 297 122 295

Z

M145 288

C152 285 155 281 158 274

C165 258 160 231 147 219

C139 211 137 211 122 211

L109 211

L107 218

C103 228 103 236 103 249

C102 266 106 277 114 285

C122 293 133 294 145 288

Z

M107 153

C78 130 54 111 54 111

C53 111 53 120 53 153

C53 195 52 196 51 196

C49 196 49 195 49 150

L49 105

L51 105

C53 105 68 116 106 148

L159 192

L159 149

C160 106 160 106 162 106

C163 106 164 106 164 151

L164 197

L161 196

C159 196 146 186 107 153

Z

M92 110

C81 108 71 102 63 94

C52 83 48 72 48 57

C48 39 56 24 71 13

C80 7 91 3 101 3

L109 2

L109 55

C109 98 109 108 110 108

C111 108 115 107 119 106

C149 98 167 71 160 44

C157 33 149 21 141 17

C138 15 137 13 139 12

C140 11 148 16 152 21

C157 27 163 38 164 45

C170 72 154 98 126 108

C116 111 101 112 92 110

Z

M105 57

L105 7

L102 7

C98 7 84 10 79 13

C66 20 57 31 53 44

C52 49 51 53 52 60

C52 69 52 70 56 78

C61 88 69 96 80 101

C86 104 97 107 102 107

L105 108

L105 57

Z

"/>

<path fill="#0f0f0f" stroke="none" d="
M143 850

C140 848 138 846 137 846

C137 846 138 844 139 841

C148 829 152 815 151 801

C150 785 144 776 133 777

C122 777 119 781 112 808

C106 831 104 836 99 842

C93 848 86 849 76 848

C57 844 47 829 47 804

C46 790 52 773 59 764

L61 761

L67 765

L72 770

L68 776

C63 784 60 793 60 804

C60 815 63 822 68 826

C74 831 84 832 89 827

C92 824 94 816 97 804

C107 767 113 758 131 758

C138 758 140 758 145 761

C158 767 165 783 165 804

C165 813 163 827 159 836

C157 843 150 854 149 853

C148 853 146 852 143 850

Z

M3 741

L3 732

L15 732

L27 732

L27 741

L27 751

L15 751

L3 751

L3 741

Z

M49 741

L49 732

L106 732

L164 732

L164 741

L164 751

L106 751

L49 751

L49 741

Z

M93 722

C70 717 54 703 48 684

C45 675 46 661 50 653

C53 645 59 637 66 632

L71 629

L37 629

L3 629

L3 619

L3 610

L72 609

C145 609 146 609 146 605

C147 603 147 603 155 603

L163 603

L164 607

C166 619 159 625 146 626

C142 626 142 626 144 627

C149 631 157 639 159 644

C176 675 157 712 121 721

C115 722 98 723 93 722

Z

M114 702

C131 699 145 686 148 670

C151 659 147 647 138 637

C130 629 129 629 107 629

L88 629

L83 631

C70 640 61 655 63 669

C65 684 78 698 96 702

C104 704 107 704 114 702

Z

M91 598

C70 593 53 576 48 555

C45 542 47 526 52 515

C62 496 80 485 102 484

L113 483

L113 531

L113 580

L117 579

C124 578 133 574 138 569

C146 562 152 550 152 540

C152 530 145 516 137 510

C132 507 132 507 135 497

C136 494 137 492 137 492

C138 492 140 493 143 495

C153 501 160 512 164 526

C172 558 153 590 121 598

C114 600 98 600 91 598

Z

M99 541

L99 501

L94 502

C82 504 69 513 64 525

C61 530 61 532 61 541

C61 550 61 552 64 557

C70 570 82 578 98 580

C98 580 99 563 99 541

Z

M7 501

C7 499 9 498 18 494

C24 491 58 476 93 461

C129 446 157 433 157 432

C157 432 141 425 120 416

C99 407 80 398 77 397

L72 395

L41 409

C23 416 9 422 9 421

C8 421 9 420 9 419

C9 418 22 412 38 405

C54 399 66 393 66 392

C65 392 52 386 37 379

C14 369 9 367 9 365

C9 364 9 363 10 364

C11 364 25 370 42 377

C58 385 72 390 73 390

C86 385 157 353 157 352

C156 352 122 337 82 319

C19 292 7 286 7 285

C7 283 7 283 7 283

C7 283 42 298 85 316

C155 347 163 351 163 353

C164 355 161 356 121 373

C98 384 78 392 78 392

C78 393 97 401 120 412

C160 429 163 430 163 432

C163 435 158 437 86 469

C43 487 8 502 7 502

C7 502 7 502 7 501

Z

M122 295

C112 292 104 280 100 266

C97 256 98 232 102 220

L104 211

L94 211

C74 211 62 217 55 231

C52 236 52 238 52 248

C52 260 54 266 60 277

C64 284 65 288 63 288

C61 288 54 275 51 267

C48 261 48 259 48 248

C48 236 48 236 52 228

C56 220 61 215 69 211

C78 207 83 206 121 206

C156 207 158 206 159 205

C160 202 164 202 164 203

C164 208 159 211 150 211

L144 211

L150 217

C164 232 170 259 162 275

C155 291 137 300 122 295

Z

M143 290

C149 287 155 280 158 274

C166 259 160 232 147 219

C139 211 137 211 122 211

L109 211

L107 217

C103 229 102 237 103 251

C103 262 104 266 105 271

C109 281 115 288 123 291

C128 293 137 292 143 290

Z

M106 153

L53 109

L53 152

C52 195 52 196 50 196

C49 196 49 195 49 150

L49 105

L51 105

C53 105 68 117 106 148

L159 192

L159 149

C160 106 160 106 162 106

C163 106 164 106 164 151

L164 197

L161 196

C159 196 145 186 106 153

Z

M94 110

C72 107 53 89 48 68

C47 61 48 46 50 39

C58 18 81 3 103 3

L109 3

L109 55

L109 108

L113 107

C129 104 144 96 152 84

C158 76 161 69 161 60

C162 42 155 26 139 15

C138 14 137 13 138 12

C139 11 140 12 144 14

C157 22 166 41 165 59

C164 82 149 100 125 108

C116 111 103 112 94 110

Z

M105 57

L105 7

L102 7

C98 7 84 11 78 14

C69 19 61 27 56 37

C52 44 52 46 52 55

C51 63 52 66 53 72

C58 85 67 95 80 101

C87 104 97 107 102 107

L105 108

L105 57

Z

"/>

<path fill="#000000" stroke="none" d="
M143 849

L136 845

L140 841

C147 830 152 817 152 805

C152 786 145 777 132 777

C123 777 119 781 114 801

C106 830 103 838 97 843

C88 851 70 849 59 840

C49 830 44 809 48 789

C49 782 56 768 59 764

L61 761

L67 765

L72 770

L69 775

C60 788 57 809 64 821

C68 829 79 833 86 829

C91 826 93 821 98 802

C105 774 109 767 118 761

C122 758 124 758 131 758

C148 758 160 769 164 790

C167 803 164 826 158 839

C156 843 150 854 149 854

C149 854 146 852 143 849

Z

M3 741

L3 732

L15 732

L27 732

L27 741

L27 751

L15 751

L3 751

L3 741

Z

M49 741

L49 732

L106 732

L164 732

L164 741

L164 751

L106 751

L49 751

L49 741

Z

M89 720

C68 715 51 699 47 681

C46 673 47 661 49 654

C52 647 59 637 66 633

L71 629

L37 629

L3 628

L3 619

L3 610

L72 609

C145 609 146 609 146 605

C147 603 147 603 155 603

L163 603

L164 607

C166 619 159 625 146 625

L142 626

L149 631

C180 660 165 710 121 721

C113 723 98 723 89 720

Z

M116 702

C133 698 147 684 149 668

C150 657 146 645 138 637

C130 629 128 629 107 629

C90 629 88 629 84 631

C78 634 70 642 66 650

C63 656 63 658 63 665

C63 673 63 675 66 680

C71 691 82 699 96 702

C104 704 108 704 116 702

Z

M91 598

C80 595 71 590 64 583

C46 565 41 538 53 515

C57 506 68 495 76 491

C84 486 96 484 105 484

L113 484

L113 532

L113 580

L117 579

C125 578 136 572 141 566

C148 558 151 551 151 540

C151 532 151 530 148 524

C144 517 139 511 134 508

C132 507 132 507 134 500

C136 496 137 492 137 492

C137 491 140 493 143 495

C166 511 172 546 157 572

C151 583 140 592 126 596

C117 600 99 600 91 598

Z

M99 541

L99 501

L94 502

C87 503 77 508 72 513

C69 516 66 520 64 524

C61 530 61 532 61 541

C61 550 61 552 64 557

C69 568 79 576 91 579

C94 580 97 580 97 580

C98 580 99 572 99 541

Z

M7 501

C7 499 21 493 82 466

C124 448 158 433 158 432

C158 432 141 425 120 415

C99 406 80 398 77 397

L72 395

L40 409

C16 419 9 422 9 421

C8 420 9 419 9 418

C10 418 23 412 38 405

C54 399 66 393 66 392

C65 392 52 386 37 379

C15 370 8 367 8 365

C8 364 9 364 9 364

C9 364 24 370 41 377

C70 390 72 391 75 389

C91 383 157 353 157 353

C157 352 124 337 82 319

C17 291 7 286 7 284

C6 283 7 282 8 283

C10 284 158 348 161 350

C162 350 163 352 163 353

C163 355 157 358 121 373

C98 384 78 392 78 392

C78 393 97 401 120 412

C159 428 163 430 163 432

C163 435 156 438 86 469

C43 487 8 502 7 502

C7 502 7 502 7 501

Z

M123 295

C112 292 104 281 100 265

C97 251 99 225 104 212

C105 211 104 211 94 211

C83 211 78 211 71 215

C64 218 59 223 55 230

C53 236 52 238 52 246

C51 258 54 269 63 283

C65 285 65 286 64 286

C62 288 59 283 53 272

C48 261 47 255 48 244

C49 226 59 213 78 208

C83 207 91 207 121 207

C156 207 158 206 159 205

C160 202 164 202 163 204

C163 208 158 211 150 211

L144 211

L149 215

C155 222 159 229 162 238

C164 245 165 248 165 258

C165 269 165 269 162 276

C154 291 138 299 123 295

Z

M144 289

C155 284 161 274 161 261

C162 241 154 222 141 213

C136 211 136 211 122 211

L109 211

L107 215

C101 235 101 264 108 277

C115 291 129 296 144 289

Z

M107 153

C78 129 54 110 53 110

C53 109 53 127 53 152

C53 195 52 196 51 196

C49 196 49 195 49 150

L49 105

L51 105

C52 104 69 118 106 148

L159 192

L159 149

C160 106 160 106 162 106

C163 106 164 106 164 151

L164 197

L161 197

C160 197 142 183 107 153

Z

M93 110

C71 105 54 90 49 70

C46 60 48 44 52 35

C62 16 84 2 103 2

L109 3

L109 55

C109 104 109 107 110 107

C111 107 115 107 119 106

C139 101 155 86 160 68

C165 48 157 27 140 15

C138 14 138 14 138 13

C139 11 140 12 144 14

C156 22 164 37 165 53

C168 88 130 118 93 110

Z

M105 57

L105 6

L99 7

C78 10 60 24 54 42

C51 50 51 63 53 71

C57 85 69 97 84 103

C88 105 99 107 102 107

L105 108

L105 57

Z

"/>

</svg>

